<mxfile host="XH4">
  <diagram id="Qre" name="Squares">
    <mxGraphModel dx="0" dy="0" background="#FFEADB" grid="0" gridSize="10" guides="1" tooltips="1" connect="1" arrows="1" fold="1" page="1" pageScale="1" pageWidth="1169" pageHeight="827" math="0" shadow="0">
      <root>
        <mxCell id="page_root_Qre" parent="Qre"/>
        <mxCell id="node_root_Qre" parent="page_root_Qre"/>
        <mxCell id="Qre-2" value="style_01" style="whiteSpace=wrap;html=1;rounded=1;fillColor=#f5f5f5;strokeColor=#666666;fontColor=#333333" vertex="1" parent="node_root_Qre">
          <mxGeometry x="30" y="30" width="160" height="160" as="geometry"/>
        </mxCell>
        <mxCell id="Qre-3" value="style_02" style="whiteSpace=wrap;html=1;rounded=1;fillColor=#dae8fc;strokeColor=#6c8ebf;fontColor=#333333" vertex="1" parent="node_root_Qre">
          <mxGeometry x="250" y="30" width="160" height="160" as="geometry"/>
        </mxCell>
        <mxCell id="Qre-4" value="style_03" style="whiteSpace=wrap;html=1;rounded=1;fillColor=#d5e8d4;strokeColor=#82b366;fontColor=#333333" vertex="1" parent="node_root_Qre">
          <mxGeometry x="470" y="30" width="160" height="160" as="geometry"/>
        </mxCell>
        <mxCell id="Qre-5" value="style_04" style="whiteSpace=wrap;html=1;rounded=1;fillColor=#ffe6cc;strokeColor=#d79b00;fontColor=#333333" vertex="1" parent="node_root_Qre">
          <mxGeometry x="690" y="30" width="160" height="160" as="geometry"/>
        </mxCell>
        <mxCell id="Qre-6" value="style_05" style="whiteSpace=wrap;html=1;rounded=1;fillColor=#fff2cc;strokeColor=#d6b656;fontColor=#333333" vertex="1" parent="node_root_Qre">
          <mxGeometry x="910" y="30" width="160" height="160" as="geometry"/>
        </mxCell>
        <mxCell id="Qre-7" value="style_06" style="whiteSpace=wrap;html=1;rounded=1;fillColor=#f8cecc;strokeColor=#b85450;fontColor=#333333" vertex="1" parent="node_root_Qre">
          <mxGeometry x="1130" y="30" width="160" height="160" as="geometry"/>
        </mxCell>
        <mxCell id="Qre-8" value="style_07" style="whiteSpace=wrap;html=1;rounded=1;fillColor=#e1d5e7;strokeColor=#9673a6;fontColor=#333333" vertex="1" parent="node_root_Qre">
          <mxGeometry x="1350" y="30" width="160" height="160" as="geometry"/>
        </mxCell>
        <mxCell id="Qre-9" value="style_08" style="whiteSpace=wrap;html=1;rounded=1;fillColor=#60a917;strokeColor=#2D7600;fontColor=#ffffff" vertex="1" parent="node_root_Qre">
          <mxGeometry x="1570" y="30" width="160" height="160" as="geometry"/>
        </mxCell>
        <mxCell id="Qre-10" value="style_09" style="whiteSpace=wrap;html=1;rounded=1;fillColor=#008a00;strokeColor=#005700;fontColor=#ffffff" vertex="1" parent="node_root_Qre">
          <mxGeometry x="30" y="250" width="160" height="160" as="geometry"/>
        </mxCell>
        <mxCell id="Qre-11" value="style_10" style="whiteSpace=wrap;html=1;rounded=1;fillColor=#1ba1e2;strokeColor=#006EAF;fontColor=#ffffff" vertex="1" parent="node_root_Qre">
          <mxGeometry x="250" y="250" width="160" height="160" as="geometry"/>
        </mxCell>
        <mxCell id="Qre-12" value="style_11" style="whiteSpace=wrap;html=1;rounded=1;fillColor=#0050ef;strokeColor=#001DBC;fontColor=#ffffff" vertex="1" parent="node_root_Qre">
          <mxGeometry x="470" y="250" width="160" height="160" as="geometry"/>
        </mxCell>
        <mxCell id="Qre-13" value="style_12" style="whiteSpace=wrap;html=1;rounded=1;fillColor=#6a00ff;strokeColor=#3700CC;fontColor=#ffffff" vertex="1" parent="node_root_Qre">
          <mxGeometry x="690" y="250" width="160" height="160" as="geometry"/>
        </mxCell>
        <mxCell id="Qre-14" value="style_13" style="whiteSpace=wrap;html=1;rounded=1;fillColor=#aa00ff;strokeColor=#7700CC;fontColor=#ffffff" vertex="1" parent="node_root_Qre">
          <mxGeometry x="910" y="250" width="160" height="160" as="geometry"/>
        </mxCell>
        <mxCell id="Qre-15" value="style_14" style="whiteSpace=wrap;html=1;rounded=1;fillColor=#d80073;strokeColor=#A50040;fontColor=#ffffff" vertex="1" parent="node_root_Qre">
          <mxGeometry x="1130" y="250" width="160" height="160" as="geometry"/>
        </mxCell>
        <mxCell id="Qre-16" value="style_15" style="whiteSpace=wrap;html=1;rounded=1;fillColor=#a20025;strokeColor=#6F0000;fontColor=#ffffff" vertex="1" parent="node_root_Qre">
          <mxGeometry x="1350" y="250" width="160" height="160" as="geometry"/>
        </mxCell>
        <mxCell id="Qre-17" value="style_16" style="whiteSpace=wrap;html=1;rounded=1;fillColor=#e51400;strokeColor=#B20000;fontColor=#ffffff" vertex="1" parent="node_root_Qre">
          <mxGeometry x="1570" y="250" width="160" height="160" as="geometry"/>
        </mxCell>
        <mxCell id="Qre-18" value="style_17" style="whiteSpace=wrap;html=1;rounded=1;fillColor=#fa6800;strokeColor=#C73500;fontColor=#000000" vertex="1" parent="node_root_Qre">
          <mxGeometry x="30" y="470" width="160" height="160" as="geometry"/>
        </mxCell>
        <mxCell id="Qre-19" value="style_18" style="whiteSpace=wrap;html=1;rounded=1;fillColor=#f0a30a;strokeColor=#BD7000;fontColor=#000000" vertex="1" parent="node_root_Qre">
          <mxGeometry x="250" y="470" width="160" height="160" as="geometry"/>
        </mxCell>
        <mxCell id="Qre-20" value="style_19" style="whiteSpace=wrap;html=1;rounded=1;fillColor=#e3c800;strokeColor=#B09500;fontColor=#000000" vertex="1" parent="node_root_Qre">
          <mxGeometry x="470" y="470" width="160" height="160" as="geometry"/>
        </mxCell>
        <mxCell id="Qre-21" value="style_20" style="whiteSpace=wrap;html=1;rounded=1;fillColor=#6d8764;strokeColor=#3A5431;fontColor=#ffffff" vertex="1" parent="node_root_Qre">
          <mxGeometry x="690" y="470" width="160" height="160" as="geometry"/>
        </mxCell>
        <mxCell id="Qre-22" value="style_21" style="whiteSpace=wrap;html=1;rounded=1;fillColor=#647687;strokeColor=#314354;fontColor=#ffffff" vertex="1" parent="node_root_Qre">
          <mxGeometry x="910" y="470" width="160" height="160" as="geometry"/>
        </mxCell>
        <mxCell id="Qre-23" value="style_22" style="whiteSpace=wrap;html=1;rounded=1;fillColor=#76608a;strokeColor=#432D57;fontColor=#ffffff" vertex="1" parent="node_root_Qre">
          <mxGeometry x="1130" y="470" width="160" height="160" as="geometry"/>
        </mxCell>
        <mxCell id="Qre-24" value="style_23" style="whiteSpace=wrap;html=1;rounded=1;fillColor=#a0522d;strokeColor=#6D1F00;fontColor=#ffffff" vertex="1" parent="node_root_Qre">
          <mxGeometry x="1350" y="470" width="160" height="160" as="geometry"/>
        </mxCell>
        <mxCell id="Qre-25" value="style_24" style="whiteSpace=wrap;html=1;rounded=1;fillColor=#fad7ac;strokeColor=#b46504;fontColor=#333333" vertex="1" parent="node_root_Qre">
          <mxGeometry x="1570" y="470" width="160" height="160" as="geometry"/>
        </mxCell>
        <mxCell id="Qre-26" value="style_25" style="whiteSpace=wrap;html=1;rounded=1;fillColor=#fad9d5;strokeColor=#ae4132;fontColor=#333333" vertex="1" parent="node_root_Qre">
          <mxGeometry x="30" y="690" width="160" height="160" as="geometry"/>
        </mxCell>
        <mxCell id="Qre-27" value="style_26" style="whiteSpace=wrap;html=1;rounded=1;fillColor=#b0e3e6;strokeColor=#0e8088;fontColor=#000000" vertex="1" parent="node_root_Qre">
          <mxGeometry x="250" y="690" width="160" height="160" as="geometry"/>
        </mxCell>
        <mxCell id="Qre-28" value="style_27" style="whiteSpace=wrap;html=1;rounded=1;fillColor=#b1ddf0;strokeColor=#10739e;fontColor=#000000" vertex="1" parent="node_root_Qre">
          <mxGeometry x="470" y="690" width="160" height="160" as="geometry"/>
        </mxCell>
        <mxCell id="Qre-29" value="style_28" style="whiteSpace=wrap;html=1;rounded=1;fillColor=#d0cee2;strokeColor=#56517e;fontColor=#000000" vertex="1" parent="node_root_Qre">
          <mxGeometry x="690" y="690" width="160" height="160" as="geometry"/>
        </mxCell>
        <mxCell id="Qre-30" value="style_29" style="whiteSpace=wrap;html=1;rounded=1;fillColor=#bac8d3;strokeColor=#23445d;fontColor=#000000" vertex="1" parent="node_root_Qre">
          <mxGeometry x="910" y="690" width="160" height="160" as="geometry"/>
        </mxCell>
        <mxCell id="Qre-31" value="style_30" style="whiteSpace=wrap;html=1;rounded=1;fillColor=#f5f5f5;strokeColor=#666666;fontColor=#000000;gradient=#b3b3b3" vertex="1" parent="node_root_Qre">
          <mxGeometry x="1130" y="690" width="160" height="160" as="geometry"/>
        </mxCell>
        <mxCell id="Qre-32" value="style_31" style="whiteSpace=wrap;html=1;rounded=1;fillColor=#dae8fc;strokeColor=#6c8ebf;fontColor=#000000;gradient=#7ea6e0" vertex="1" parent="node_root_Qre">
          <mxGeometry x="1350" y="690" width="160" height="160" as="geometry"/>
        </mxCell>
        <mxCell id="Qre-33" value="style_32" style="whiteSpace=wrap;html=1;rounded=1;fillColor=#d5e8d4;strokeColor=#82b366;fontColor=#000000;gradient=#97d077" vertex="1" parent="node_root_Qre">
          <mxGeometry x="1570" y="690" width="160" height="160" as="geometry"/>
        </mxCell>
        <mxCell id="Qre-34" value="style_33" style="whiteSpace=wrap;html=1;rounded=1;fillColor=#ffcd28;strokeColor=#d79b00;fontColor=#000000;gradient=#ffa500" vertex="1" parent="node_root_Qre">
          <mxGeometry x="30" y="910" width="160" height="160" as="geometry"/>
        </mxCell>
        <mxCell id="Qre-35" value="style_34" style="whiteSpace=wrap;html=1;rounded=1;fillColor=#fff2cc;strokeColor=#d6b656;fontColor=#000000;gradient=#ffd966" vertex="1" parent="node_root_Qre">
          <mxGeometry x="250" y="910" width="160" height="160" as="geometry"/>
        </mxCell>
        <mxCell id="Qre-36" value="style_35" style="whiteSpace=wrap;html=1;rounded=1;fillColor=#f8cecc;strokeColor=#b85450;fontColor=#000000;gradient=#ea6b66" vertex="1" parent="node_root_Qre">
          <mxGeometry x="470" y="910" width="160" height="160" as="geometry"/>
        </mxCell>
        <mxCell id="Qre-37" value="style_36" style="whiteSpace=wrap;html=1;rounded=1;fillColor=#e6d0de;strokeColor=#996185;fontColor=#000000;gradient=#d5739d" vertex="1" parent="node_root_Qre">
          <mxGeometry x="690" y="910" width="160" height="160" as="geometry"/>
        </mxCell>
        <mxCell id="Qre-38" value="style_37" style="whiteSpace=wrap;html=1;rounded=1;fillColor=#eeeeee;strokeColor=#36393d;fontColor=#000000" vertex="1" parent="node_root_Qre">
          <mxGeometry x="910" y="910" width="160" height="160" as="geometry"/>
        </mxCell>
        <mxCell id="Qre-39" value="style_38" style="whiteSpace=wrap;html=1;rounded=1;fillColor=#f9f7ed;strokeColor=#36393d;fontColor=#000000" vertex="1" parent="node_root_Qre">
          <mxGeometry x="1130" y="910" width="160" height="160" as="geometry"/>
        </mxCell>
        <mxCell id="Qre-40" value="style_39" style="whiteSpace=wrap;html=1;rounded=1;fillColor=#ffcc99;strokeColor=#36393d;fontColor=#000000" vertex="1" parent="node_root_Qre">
          <mxGeometry x="1350" y="910" width="160" height="160" as="geometry"/>
        </mxCell>
        <mxCell id="Qre-41" value="style_40" style="whiteSpace=wrap;html=1;rounded=1;fillColor=#cce5ff;strokeColor=#36393d;fontColor=#000000" vertex="1" parent="node_root_Qre">
          <mxGeometry x="1570" y="910" width="160" height="160" as="geometry"/>
        </mxCell>
        <mxCell id="Qre-42" value="style_41" style="whiteSpace=wrap;html=1;rounded=1;fillColor=#ffff88;strokeColor=#36393d;fontColor=#000000" vertex="1" parent="node_root_Qre">
          <mxGeometry x="30" y="1130" width="160" height="160" as="geometry"/>
        </mxCell>
        <mxCell id="Qre-43" value="style_42" style="whiteSpace=wrap;html=1;rounded=1;fillColor=#cdeb8b;strokeColor=#36393d;fontColor=#000000" vertex="1" parent="node_root_Qre">
          <mxGeometry x="250" y="1130" width="160" height="160" as="geometry"/>
        </mxCell>
        <mxCell id="Qre-44" value="style_43" style="whiteSpace=wrap;html=1;rounded=1;fillColor=#ffcccc;strokeColor=#36393d;fontColor=#000000" vertex="1" parent="node_root_Qre">
          <mxGeometry x="470" y="1130" width="160" height="160" as="geometry"/>
        </mxCell>
      </root>
    </mxGraphModel>
  </diagram>
  <diagram id="lOx" name="Circles">
    <mxGraphModel dx="0" dy="0" background="#FFEADB" grid="0" gridSize="10" guides="1" tooltips="1" connect="1" arrows="1" fold="1" page="1" pageScale="1" pageWidth="1169" pageHeight="827" math="0" shadow="0">
      <root>
        <mxCell id="page_root_lOx" parent="lOx"/>
        <mxCell id="node_root_lOx" parent="page_root_lOx"/>
        <mxCell id="lOx-2" value="style_01" style="whiteSpace=wrap;html=1;rounded=1;fillColor=#f5f5f5;strokeColor=#666666;fontColor=#333333;ellipse" vertex="1" parent="node_root_lOx">
          <mxGeometry x="30" y="30" width="160" height="160" as="geometry"/>
        </mxCell>
        <mxCell id="lOx-3" value="style_02" style="whiteSpace=wrap;html=1;rounded=1;fillColor=#dae8fc;strokeColor=#6c8ebf;fontColor=#333333;ellipse" vertex="1" parent="node_root_lOx">
          <mxGeometry x="250" y="30" width="160" height="160" as="geometry"/>
        </mxCell>
        <mxCell id="lOx-4" value="style_03" style="whiteSpace=wrap;html=1;rounded=1;fillColor=#d5e8d4;strokeColor=#82b366;fontColor=#333333;ellipse" vertex="1" parent="node_root_lOx">
          <mxGeometry x="470" y="30" width="160" height="160" as="geometry"/>
        </mxCell>
        <mxCell id="lOx-5" value="style_04" style="whiteSpace=wrap;html=1;rounded=1;fillColor=#ffe6cc;strokeColor=#d79b00;fontColor=#333333;ellipse" vertex="1" parent="node_root_lOx">
          <mxGeometry x="690" y="30" width="160" height="160" as="geometry"/>
        </mxCell>
        <mxCell id="lOx-6" value="style_05" style="whiteSpace=wrap;html=1;rounded=1;fillColor=#fff2cc;strokeColor=#d6b656;fontColor=#333333;ellipse" vertex="1" parent="node_root_lOx">
          <mxGeometry x="910" y="30" width="160" height="160" as="geometry"/>
        </mxCell>
        <mxCell id="lOx-7" value="style_06" style="whiteSpace=wrap;html=1;rounded=1;fillColor=#f8cecc;strokeColor=#b85450;fontColor=#333333;ellipse" vertex="1" parent="node_root_lOx">
          <mxGeometry x="1130" y="30" width="160" height="160" as="geometry"/>
        </mxCell>
        <mxCell id="lOx-8" value="style_07" style="whiteSpace=wrap;html=1;rounded=1;fillColor=#e1d5e7;strokeColor=#9673a6;fontColor=#333333;ellipse" vertex="1" parent="node_root_lOx">
          <mxGeometry x="1350" y="30" width="160" height="160" as="geometry"/>
        </mxCell>
        <mxCell id="lOx-9" value="style_08" style="whiteSpace=wrap;html=1;rounded=1;fillColor=#60a917;strokeColor=#2D7600;fontColor=#ffffff;ellipse" vertex="1" parent="node_root_lOx">
          <mxGeometry x="1570" y="30" width="160" height="160" as="geometry"/>
        </mxCell>
        <mxCell id="lOx-10" value="style_09" style="whiteSpace=wrap;html=1;rounded=1;fillColor=#008a00;strokeColor=#005700;fontColor=#ffffff;ellipse" vertex="1" parent="node_root_lOx">
          <mxGeometry x="30" y="250" width="160" height="160" as="geometry"/>
        </mxCell>
        <mxCell id="lOx-11" value="style_10" style="whiteSpace=wrap;html=1;rounded=1;fillColor=#1ba1e2;strokeColor=#006EAF;fontColor=#ffffff;ellipse" vertex="1" parent="node_root_lOx">
          <mxGeometry x="250" y="250" width="160" height="160" as="geometry"/>
        </mxCell>
        <mxCell id="lOx-12" value="style_11" style="whiteSpace=wrap;html=1;rounded=1;fillColor=#0050ef;strokeColor=#001DBC;fontColor=#ffffff;ellipse" vertex="1" parent="node_root_lOx">
          <mxGeometry x="470" y="250" width="160" height="160" as="geometry"/>
        </mxCell>
        <mxCell id="lOx-13" value="style_12" style="whiteSpace=wrap;html=1;rounded=1;fillColor=#6a00ff;strokeColor=#3700CC;fontColor=#ffffff;ellipse" vertex="1" parent="node_root_lOx">
          <mxGeometry x="690" y="250" width="160" height="160" as="geometry"/>
        </mxCell>
        <mxCell id="lOx-14" value="style_13" style="whiteSpace=wrap;html=1;rounded=1;fillColor=#aa00ff;strokeColor=#7700CC;fontColor=#ffffff;ellipse" vertex="1" parent="node_root_lOx">
          <mxGeometry x="910" y="250" width="160" height="160" as="geometry"/>
        </mxCell>
        <mxCell id="lOx-15" value="style_14" style="whiteSpace=wrap;html=1;rounded=1;fillColor=#d80073;strokeColor=#A50040;fontColor=#ffffff;ellipse" vertex="1" parent="node_root_lOx">
          <mxGeometry x="1130" y="250" width="160" height="160" as="geometry"/>
        </mxCell>
        <mxCell id="lOx-16" value="style_15" style="whiteSpace=wrap;html=1;rounded=1;fillColor=#a20025;strokeColor=#6F0000;fontColor=#ffffff;ellipse" vertex="1" parent="node_root_lOx">
          <mxGeometry x="1350" y="250" width="160" height="160" as="geometry"/>
        </mxCell>
        <mxCell id="lOx-17" value="style_16" style="whiteSpace=wrap;html=1;rounded=1;fillColor=#e51400;strokeColor=#B20000;fontColor=#ffffff;ellipse" vertex="1" parent="node_root_lOx">
          <mxGeometry x="1570" y="250" width="160" height="160" as="geometry"/>
        </mxCell>
        <mxCell id="lOx-18" value="style_17" style="whiteSpace=wrap;html=1;rounded=1;fillColor=#fa6800;strokeColor=#C73500;fontColor=#000000;ellipse" vertex="1" parent="node_root_lOx">
          <mxGeometry x="30" y="470" width="160" height="160" as="geometry"/>
        </mxCell>
        <mxCell id="lOx-19" value="style_18" style="whiteSpace=wrap;html=1;rounded=1;fillColor=#f0a30a;strokeColor=#BD7000;fontColor=#000000;ellipse" vertex="1" parent="node_root_lOx">
          <mxGeometry x="250" y="470" width="160" height="160" as="geometry"/>
        </mxCell>
        <mxCell id="lOx-20" value="style_19" style="whiteSpace=wrap;html=1;rounded=1;fillColor=#e3c800;strokeColor=#B09500;fontColor=#000000;ellipse" vertex="1" parent="node_root_lOx">
          <mxGeometry x="470" y="470" width="160" height="160" as="geometry"/>
        </mxCell>
        <mxCell id="lOx-21" value="style_20" style="whiteSpace=wrap;html=1;rounded=1;fillColor=#6d8764;strokeColor=#3A5431;fontColor=#ffffff;ellipse" vertex="1" parent="node_root_lOx">
          <mxGeometry x="690" y="470" width="160" height="160" as="geometry"/>
        </mxCell>
        <mxCell id="lOx-22" value="style_21" style="whiteSpace=wrap;html=1;rounded=1;fillColor=#647687;strokeColor=#314354;fontColor=#ffffff;ellipse" vertex="1" parent="node_root_lOx">
          <mxGeometry x="910" y="470" width="160" height="160" as="geometry"/>
        </mxCell>
        <mxCell id="lOx-23" value="style_22" style="whiteSpace=wrap;html=1;rounded=1;fillColor=#76608a;strokeColor=#432D57;fontColor=#ffffff;ellipse" vertex="1" parent="node_root_lOx">
          <mxGeometry x="1130" y="470" width="160" height="160" as="geometry"/>
        </mxCell>
        <mxCell id="lOx-24" value="style_23" style="whiteSpace=wrap;html=1;rounded=1;fillColor=#a0522d;strokeColor=#6D1F00;fontColor=#ffffff;ellipse" vertex="1" parent="node_root_lOx">
          <mxGeometry x="1350" y="470" width="160" height="160" as="geometry"/>
        </mxCell>
        <mxCell id="lOx-25" value="style_24" style="whiteSpace=wrap;html=1;rounded=1;fillColor=#fad7ac;strokeColor=#b46504;fontColor=#333333;ellipse" vertex="1" parent="node_root_lOx">
          <mxGeometry x="1570" y="470" width="160" height="160" as="geometry"/>
        </mxCell>
        <mxCell id="lOx-26" value="style_25" style="whiteSpace=wrap;html=1;rounded=1;fillColor=#fad9d5;strokeColor=#ae4132;fontColor=#333333;ellipse" vertex="1" parent="node_root_lOx">
          <mxGeometry x="30" y="690" width="160" height="160" as="geometry"/>
        </mxCell>
        <mxCell id="lOx-27" value="style_26" style="whiteSpace=wrap;html=1;rounded=1;fillColor=#b0e3e6;strokeColor=#0e8088;fontColor=#000000;ellipse" vertex="1" parent="node_root_lOx">
          <mxGeometry x="250" y="690" width="160" height="160" as="geometry"/>
        </mxCell>
        <mxCell id="lOx-28" value="style_27" style="whiteSpace=wrap;html=1;rounded=1;fillColor=#b1ddf0;strokeColor=#10739e;fontColor=#000000;ellipse" vertex="1" parent="node_root_lOx">
          <mxGeometry x="470" y="690" width="160" height="160" as="geometry"/>
        </mxCell>
        <mxCell id="lOx-29" value="style_28" style="whiteSpace=wrap;html=1;rounded=1;fillColor=#d0cee2;strokeColor=#56517e;fontColor=#000000;ellipse" vertex="1" parent="node_root_lOx">
          <mxGeometry x="690" y="690" width="160" height="160" as="geometry"/>
        </mxCell>
        <mxCell id="lOx-30" value="style_29" style="whiteSpace=wrap;html=1;rounded=1;fillColor=#bac8d3;strokeColor=#23445d;fontColor=#000000;ellipse" vertex="1" parent="node_root_lOx">
          <mxGeometry x="910" y="690" width="160" height="160" as="geometry"/>
        </mxCell>
        <mxCell id="lOx-31" value="style_30" style="whiteSpace=wrap;html=1;rounded=1;fillColor=#f5f5f5;strokeColor=#666666;fontColor=#000000;gradient=#b3b3b3;ellipse" vertex="1" parent="node_root_lOx">
          <mxGeometry x="1130" y="690" width="160" height="160" as="geometry"/>
        </mxCell>
        <mxCell id="lOx-32" value="style_31" style="whiteSpace=wrap;html=1;rounded=1;fillColor=#dae8fc;strokeColor=#6c8ebf;fontColor=#000000;gradient=#7ea6e0;ellipse" vertex="1" parent="node_root_lOx">
          <mxGeometry x="1350" y="690" width="160" height="160" as="geometry"/>
        </mxCell>
        <mxCell id="lOx-33" value="style_32" style="whiteSpace=wrap;html=1;rounded=1;fillColor=#d5e8d4;strokeColor=#82b366;fontColor=#000000;gradient=#97d077;ellipse" vertex="1" parent="node_root_lOx">
          <mxGeometry x="1570" y="690" width="160" height="160" as="geometry"/>
        </mxCell>
        <mxCell id="lOx-34" value="style_33" style="whiteSpace=wrap;html=1;rounded=1;fillColor=#ffcd28;strokeColor=#d79b00;fontColor=#000000;gradient=#ffa500;ellipse" vertex="1" parent="node_root_lOx">
          <mxGeometry x="30" y="910" width="160" height="160" as="geometry"/>
        </mxCell>
        <mxCell id="lOx-35" value="style_34" style="whiteSpace=wrap;html=1;rounded=1;fillColor=#fff2cc;strokeColor=#d6b656;fontColor=#000000;gradient=#ffd966;ellipse" vertex="1" parent="node_root_lOx">
          <mxGeometry x="250" y="910" width="160" height="160" as="geometry"/>
        </mxCell>
        <mxCell id="lOx-36" value="style_35" style="whiteSpace=wrap;html=1;rounded=1;fillColor=#f8cecc;strokeColor=#b85450;fontColor=#000000;gradient=#ea6b66;ellipse" vertex="1" parent="node_root_lOx">
          <mxGeometry x="470" y="910" width="160" height="160" as="geometry"/>
        </mxCell>
        <mxCell id="lOx-37" value="style_36" style="whiteSpace=wrap;html=1;rounded=1;fillColor=#e6d0de;strokeColor=#996185;fontColor=#000000;gradient=#d5739d;ellipse" vertex="1" parent="node_root_lOx">
          <mxGeometry x="690" y="910" width="160" height="160" as="geometry"/>
        </mxCell>
        <mxCell id="lOx-38" value="style_37" style="whiteSpace=wrap;html=1;rounded=1;fillColor=#eeeeee;strokeColor=#36393d;fontColor=#000000;ellipse" vertex="1" parent="node_root_lOx">
          <mxGeometry x="910" y="910" width="160" height="160" as="geometry"/>
        </mxCell>
        <mxCell id="lOx-39" value="style_38" style="whiteSpace=wrap;html=1;rounded=1;fillColor=#f9f7ed;strokeColor=#36393d;fontColor=#000000;ellipse" vertex="1" parent="node_root_lOx">
          <mxGeometry x="1130" y="910" width="160" height="160" as="geometry"/>
        </mxCell>
        <mxCell id="lOx-40" value="style_39" style="whiteSpace=wrap;html=1;rounded=1;fillColor=#ffcc99;strokeColor=#36393d;fontColor=#000000;ellipse" vertex="1" parent="node_root_lOx">
          <mxGeometry x="1350" y="910" width="160" height="160" as="geometry"/>
        </mxCell>
        <mxCell id="lOx-41" value="style_40" style="whiteSpace=wrap;html=1;rounded=1;fillColor=#cce5ff;strokeColor=#36393d;fontColor=#000000;ellipse" vertex="1" parent="node_root_lOx">
          <mxGeometry x="1570" y="910" width="160" height="160" as="geometry"/>
        </mxCell>
        <mxCell id="lOx-42" value="style_41" style="whiteSpace=wrap;html=1;rounded=1;fillColor=#ffff88;strokeColor=#36393d;fontColor=#000000;ellipse" vertex="1" parent="node_root_lOx">
          <mxGeometry x="30" y="1130" width="160" height="160" as="geometry"/>
        </mxCell>
        <mxCell id="lOx-43" value="style_42" style="whiteSpace=wrap;html=1;rounded=1;fillColor=#cdeb8b;strokeColor=#36393d;fontColor=#000000;ellipse" vertex="1" parent="node_root_lOx">
          <mxGeometry x="250" y="1130" width="160" height="160" as="geometry"/>
        </mxCell>
        <mxCell id="lOx-44" value="style_43" style="whiteSpace=wrap;html=1;rounded=1;fillColor=#ffcccc;strokeColor=#36393d;fontColor=#000000;ellipse" vertex="1" parent="node_root_lOx">
          <mxGeometry x="470" y="1130" width="160" height="160" as="geometry"/>
        </mxCell>
      </root>
    </mxGraphModel>
  </diagram>
  <diagram id="C70" name="Randoms">
    <mxGraphModel dx="0" dy="0" background="#FFEADB" grid="0" gridSize="10" guides="1" tooltips="1" connect="1" arrows="1" fold="1" page="1" pageScale="1" pageWidth="1169" pageHeight="827" math="0" shadow="0">
      <root>
        <mxCell id="page_root_C70" parent="C70"/>
        <mxCell id="node_root_C70" parent="page_root_C70"/>
        <mxCell id="C70-2" value="style_01" style="whiteSpace=wrap;html=1;rounded=1;fillColor=#f5f5f5;strokeColor=#666666;fontColor=#333333;rhombus" vertex="1" parent="node_root_C70">
          <mxGeometry x="60" y="60" width="100" height="100" as="geometry"/>
        </mxCell>
        <mxCell id="C70-3" value="style_02" style="whiteSpace=wrap;html=1;rounded=1;fillColor=#dae8fc;strokeColor=#6c8ebf;fontColor=#333333;shape=partialRectangle;connectable=0;top=0;left=0;bottom=0;right=0;fontStyle=1;overflow=hidden" vertex="1" parent="node_root_C70">
          <mxGeometry x="305" y="90" width="50" height="40" as="geometry"/>
        </mxCell>
        <mxCell id="C70-4" value="style_03" style="dashed=1;fixDash=1;dashPattern=8 8;edgeStyle=none;exitX=0;exitY=0;exitDx=0;exitDy=0;entryX=1;entryY=0;entryDx=0;entryDy=0;startArrow=none;startFill=1;endArrow=open;endFill=1;whiteSpace=wrap;html=1;rounded=1;fillColor=#d5e8d4;strokeColor=#82b366" parent="node_root_C70" source="" target="" edge="1">
          <mxGeometry relative="1" as="geometry"/>
        </mxCell>
        <mxCell id="C70-5" value="style_04" style="whiteSpace=wrap;html=1;rounded=1;fontColor=#1F2D3D;text;fontSize=67;fontStyle=1;fillColor=none" vertex="1" parent="node_root_C70">
          <mxGeometry x="500" y="85" width="100" height="50" as="geometry"/>
        </mxCell>
        <mxCell id="C70-6" value="style_05" style="whiteSpace=wrap;html=1;rounded=1;fillColor=#fff2cc;strokeColor=#d6b656;fontColor=#333333" vertex="1" parent="node_root_C70">
          <mxGeometry x="670" y="50" width="200" height="120" as="geometry"/>
        </mxCell>
        <mxCell id="C70-7" value="style_06" style="dashed=1;fixDash=1;dashPattern=16 6;edgeStyle=none;exitX=0;exitY=0;exitDx=0;exitDy=0;entryX=1;entryY=0;entryDx=0;entryDy=0;startArrow=none;startFill=1;endArrow=open;endFill=1;whiteSpace=wrap;html=1;rounded=1;fillColor=#f8cecc;strokeColor=#b85450" parent="node_root_C70" source="" target="" edge="1">
          <mxGeometry relative="1" as="geometry"/>
        </mxCell>
        <mxCell id="C70-8" value="style_07" style="whiteSpace=wrap;html=1;rounded=1;fillColor=#e1d5e7;strokeColor=#9673a6;fontColor=#333333;align=left;overflow=fill;fontSize=12;fontFamily=Helvetica" vertex="1" parent="node_root_C70">
          <mxGeometry x="910" y="30" width="160" height="160" as="geometry"/>
        </mxCell>
        <mxCell id="C70-9" value="style_08" style="whiteSpace=wrap;html=1;rounded=1;fillColor=#60a917;strokeColor=#2D7600;fontColor=#ffffff;shape=actor" vertex="1" parent="node_root_C70">
          <mxGeometry x="1190" y="85" width="40" height="50" as="geometry"/>
        </mxCell>
        <mxCell id="C70-10" value="style_09" style="whiteSpace=wrap;html=1;rounded=1;fillColor=#008a00;strokeColor=#005700;fontColor=#ffffff;shape=note" vertex="1" parent="node_root_C70">
          <mxGeometry x="1350" y="30" width="160" height="160" as="geometry"/>
        </mxCell>
        <mxCell id="C70-11" value="style_10" style="edgeStyle=none;shape=link;exitX=0;exitY=0;exitDx=0;exitDy=0;entryX=1;entryY=0;entryDx=0;entryDy=0;startArrow=none;startFill=1;endArrow=open;endFill=1;whiteSpace=wrap;html=1;rounded=1;fillColor=#1ba1e2;strokeColor=#006EAF" parent="node_root_C70" source="" target="" edge="1">
          <mxGeometry relative="1" as="geometry"/>
        </mxCell>
        <mxCell id="C70-12" value="style_11" style="dashed=1;fixDash=1;edgeStyle=none;shape=link;exitX=0;exitY=0;exitDx=0;exitDy=0;entryX=1;entryY=0;entryDx=0;entryDy=0;startArrow=none;startFill=1;endArrow=open;endFill=1;whiteSpace=wrap;html=1;rounded=1;fillColor=#0050ef;strokeColor=#001DBC" parent="node_root_C70" source="" target="" edge="1">
          <mxGeometry relative="1" as="geometry"/>
        </mxCell>
        <mxCell id="C70-13" value="style_12" style="whiteSpace=wrap;html=1;rounded=1;fillColor=#6a00ff;strokeColor=#3700CC;fontColor=#ffffff;shape=cloud" vertex="1" parent="node_root_C70">
          <mxGeometry x="1570" y="30" width="160" height="160" as="geometry"/>
        </mxCell>
        <mxCell id="C70-14" value="style_13" style="whiteSpace=wrap;html=1;rounded=1;fontColor=#1F2D3D;text;fontSize=50;fontStyle=1;fillColor=none" vertex="1" parent="node_root_C70">
          <mxGeometry x="60" y="305" width="100" height="50" as="geometry"/>
        </mxCell>
        <mxCell id="C70-15" value="style_14" style="whiteSpace=wrap;html=1;rounded=1;fillColor=#d80073;strokeColor=#A50040;fontColor=#ffffff;shape=mxgraph.basic.cloud_rect" vertex="1" parent="node_root_C70">
          <mxGeometry x="230" y="270" width="200" height="120" as="geometry"/>
        </mxCell>
        <mxCell id="C70-16" value="style_15" style="whiteSpace=wrap;html=1;rounded=1;fillColor=#a20025;strokeColor=#6F0000;fontColor=#ffffff;shape=callout" vertex="1" parent="node_root_C70">
          <mxGeometry x="470" y="270" width="160" height="120" as="geometry"/>
        </mxCell>
        <mxCell id="C70-17" value="style_16" style="whiteSpace=wrap;html=1;rounded=1;fillColor=#e51400;strokeColor=#B20000;fontColor=#ffffff;shape=callout" vertex="1" parent="node_root_C70">
          <mxGeometry x="690" y="270" width="160" height="120" as="geometry"/>
        </mxCell>
        <mxCell id="C70-18" value="style_17" style="whiteSpace=wrap;html=1;rounded=1;fillColor=#fa6800;strokeColor=#C73500;fontColor=#000000" vertex="1" parent="node_root_C70">
          <mxGeometry x="840" y="300" width="300" height="60" as="geometry"/>
        </mxCell>
        <mxCell id="C70-19" value="style_18" style="whiteSpace=wrap;html=1;rounded=1;fillColor=#f0a30a;strokeColor=#BD7000;fontColor=#000000;shape=process" vertex="1" parent="node_root_C70">
          <mxGeometry x="1110" y="270" width="200" height="120" as="geometry"/>
        </mxCell>
        <mxCell id="C70-20" value="style_19" style="dashed=1;fixDash=1;dashPattern=6 5;edgeStyle=none;exitX=0;exitY=0;exitDx=0;exitDy=0;entryX=1;entryY=0;entryDx=0;entryDy=0;startArrow=none;startFill=1;endArrow=open;endFill=1;whiteSpace=wrap;html=1;rounded=1;fillColor=#e3c800;strokeColor=#B09500" parent="node_root_C70" source="" target="" edge="1">
          <mxGeometry relative="1" as="geometry"/>
        </mxCell>
        <mxCell id="C70-21" value="style_20" style="dashed=1;fixDash=1;edgeStyle=none;exitX=0;exitY=0;exitDx=0;exitDy=0;entryX=1;entryY=0;entryDx=0;entryDy=0;startArrow=none;startFill=1;endArrow=open;endFill=1;whiteSpace=wrap;html=1;rounded=1;fillColor=#6d8764;strokeColor=#3A5431" parent="node_root_C70" source="" target="" edge="1">
          <mxGeometry relative="1" as="geometry"/>
        </mxCell>
        <mxCell id="C70-22" value="style_21" style="whiteSpace=wrap;html=1;rounded=1;fontColor=#1F2D3D;text;fontSize=37;fontStyle=1;fillColor=none" vertex="1" parent="node_root_C70">
          <mxGeometry x="1380" y="305" width="100" height="50" as="geometry"/>
        </mxCell>
        <mxCell id="C70-23" value="style_22" style="whiteSpace=wrap;html=1;rounded=1;fillColor=#76608a;strokeColor=#432D57;fontColor=#ffffff;triangle" vertex="1" parent="node_root_C70">
          <mxGeometry x="1600" y="280" width="100" height="100" as="geometry"/>
        </mxCell>
        <mxCell id="C70-24" value="style_23" style="whiteSpace=wrap;html=1;rounded=1;fillColor=#a0522d;strokeColor=#6D1F00;fontColor=#ffffff;shape=partialRectangle;connectable=0;top=0;left=0;bottom=0;right=0;align=left;spacingLeft=6;overflow=hidden" vertex="1" parent="node_root_C70">
          <mxGeometry x="35" y="530" width="150" height="40" as="geometry"/>
        </mxCell>
        <mxCell id="C70-25" value="style_24" style="whiteSpace=wrap;html=1;rounded=1;fontColor=#1F2D3D;text;fontSize=16;fontStyle=1;fillColor=none" vertex="1" parent="node_root_C70">
          <mxGeometry x="280" y="525" width="100" height="50" as="geometry"/>
        </mxCell>
        <mxCell id="C70-26" value="style_25" style="dashed=1;fixDash=1;dashPattern=10 5 1 5 1 5;edgeStyle=none;exitX=0;exitY=0;exitDx=0;exitDy=0;entryX=1;entryY=0;entryDx=0;entryDy=0;startArrow=none;startFill=1;endArrow=open;endFill=1;whiteSpace=wrap;html=1;rounded=1;fillColor=#fad9d5;strokeColor=#ae4132" parent="node_root_C70" source="" target="" edge="1">
          <mxGeometry relative="1" as="geometry"/>
        </mxCell>
        <mxCell id="C70-27" value="style_26" style="whiteSpace=wrap;html=1;rounded=1;fillColor=#b0e3e6;strokeColor=#0e8088;fontColor=#000000;shape=mxgraph.basic.roundRectCallout;dx=30;dy=15;size=5;boundedLbl=1" vertex="1" parent="node_root_C70">
          <mxGeometry x="470" y="490" width="160" height="120" as="geometry"/>
        </mxCell>
        <mxCell id="C70-28" value="style_27" style="dashed=1;fixDash=1;edgeStyle=none;exitX=0;exitY=0;exitDx=0;exitDy=0;entryX=1;entryY=0;entryDx=0;entryDy=0;startArrow=none;startFill=1;endArrow=open;endFill=1;whiteSpace=wrap;html=1;rounded=1;fillColor=#b1ddf0;strokeColor=#10739e" parent="node_root_C70" source="" target="" edge="1">
          <mxGeometry relative="1" as="geometry"/>
        </mxCell>
        <mxCell id="C70-29" value="style_28" style="dashed=1;fixDash=1;dashPattern=1 4;edgeStyle=none;exitX=0;exitY=0;exitDx=0;exitDy=0;entryX=1;entryY=0;entryDx=0;entryDy=0;startArrow=none;startFill=1;endArrow=open;endFill=1;whiteSpace=wrap;html=1;rounded=1;fillColor=#d0cee2;strokeColor=#56517e" parent="node_root_C70" source="" target="" edge="1">
          <mxGeometry relative="1" as="geometry"/>
        </mxCell>
        <mxCell id="C70-30" value="style_29" style="whiteSpace=wrap;html=1;rounded=1;fillColor=#bac8d3;strokeColor=#23445d;fontColor=#000000;shape=mxgraph.basic.roundRectCallout;dx=30;dy=15;size=5;boundedLbl=1" vertex="1" parent="node_root_C70">
          <mxGeometry x="690" y="490" width="160" height="120" as="geometry"/>
        </mxCell>
        <mxCell id="C70-31" value="style_30" style="whiteSpace=wrap;html=1;rounded=1;fillColor=#f5f5f5;strokeColor=#666666;fontColor=#000000;gradient=#b3b3b3;ellipse" vertex="1" parent="node_root_C70">
          <mxGeometry x="910" y="470" width="160" height="160" as="geometry"/>
        </mxCell>
        <mxCell id="C70-32" value="style_31" style="whiteSpace=wrap;html=1;rounded=1;fontColor=#1F2D3D;text;fontSize=16;fontStyle=1;fillColor=none" vertex="1" parent="node_root_C70">
          <mxGeometry x="1160" y="525" width="100" height="50" as="geometry"/>
        </mxCell>
        <mxCell id="C70-33" value="style_32" style="whiteSpace=wrap;html=1;rounded=1;fillColor=#d5e8d4;strokeColor=#82b366;fontColor=#000000;gradient=#97d077;shape=cloud" vertex="1" parent="node_root_C70">
          <mxGeometry x="1350" y="470" width="160" height="160" as="geometry"/>
        </mxCell>
        <mxCell id="C70-34" value="style_33" style="dashed=1;fixDash=1;edgeStyle=none;exitX=0;exitY=0;exitDx=0;exitDy=0;entryX=1;entryY=0;entryDx=0;entryDy=0;startArrow=none;startFill=1;endArrow=open;endFill=1;whiteSpace=wrap;html=1;rounded=1;fillColor=#ffcd28;strokeColor=#d79b00" parent="node_root_C70" source="" target="" edge="1">
          <mxGeometry relative="1" as="geometry"/>
        </mxCell>
        <mxCell id="C70-35" value="style_34" style="whiteSpace=wrap;html=1;rounded=1;fillColor=#fff2cc;strokeColor=#d6b656;fontColor=#000000;gradient=#ffd966;shape=mxgraph.basic.document" vertex="1" parent="node_root_C70">
          <mxGeometry x="1570" y="470" width="160" height="160" as="geometry"/>
        </mxCell>
        <mxCell id="C70-36" value="style_35" style="whiteSpace=wrap;html=1;rounded=1;fontColor=#1F2D3D;text;fontSize=37;fontStyle=1;fillColor=none" vertex="1" parent="node_root_C70">
          <mxGeometry x="60" y="745" width="100" height="50" as="geometry"/>
        </mxCell>
        <mxCell id="C70-37" value="style_36" style="whiteSpace=wrap;html=1;rounded=1;fillColor=#e6d0de;strokeColor=#996185;fontColor=#000000;gradient=#d5739d;shape=mxgraph.flowchart.database;strokeWidth=1" vertex="1" parent="node_root_C70">
          <mxGeometry x="250" y="730" width="160" height="80" as="geometry"/>
        </mxCell>
        <mxCell id="C70-38" value="style_37" style="whiteSpace=wrap;html=1;rounded=1;fontColor=#1F2D3D;text;fontSize=89;fontStyle=1;fillColor=none" vertex="1" parent="node_root_C70">
          <mxGeometry x="500" y="745" width="100" height="50" as="geometry"/>
        </mxCell>
        <mxCell id="C70-39" value="style_38" style="whiteSpace=wrap;html=1;rounded=1;fillColor=#f9f7ed;strokeColor=#36393d;fontColor=#000000;shape=partialRectangle;collapsible=0;dropTarget=0;pointerEvents=0;top=0;left=0;bottom=1;right=0;points=[[0,0.5],[1,0.5]];portConstraint=eastwest" vertex="1" parent="node_root_C70">
          <mxGeometry x="670" y="750" width="200" height="40" as="geometry"/>
        </mxCell>
        <mxCell id="C70-40" value="style_39" style="whiteSpace=wrap;html=1;rounded=1;fillColor=#ffcc99;strokeColor=#36393d;fontColor=#000000;shape=message" vertex="1" parent="node_root_C70">
          <mxGeometry x="910" y="720" width="160" height="100" as="geometry"/>
        </mxCell>
        <mxCell id="C70-41" value="style_40" style="whiteSpace=wrap;html=1;rounded=1;fillColor=#cce5ff;strokeColor=#36393d;fontColor=#000000" vertex="1" parent="node_root_C70">
          <mxGeometry x="1110" y="710" width="200" height="120" as="geometry"/>
        </mxCell>
        <mxCell id="C70-42" value="style_41" style="whiteSpace=wrap;html=1;rounded=1;fillColor=#ffff88;strokeColor=#36393d;fontColor=#000000;rhombus" vertex="1" parent="node_root_C70">
          <mxGeometry x="1380" y="720" width="100" height="100" as="geometry"/>
        </mxCell>
        <mxCell id="C70-43" value="style_42" style="whiteSpace=wrap;html=1;rounded=1;fillColor=#cdeb8b;strokeColor=#36393d;fontColor=#000000;shape=mxgraph.flowchart.database;strokeWidth=1" vertex="1" parent="node_root_C70">
          <mxGeometry x="1570" y="750" width="160" height="40" as="geometry"/>
        </mxCell>
        <mxCell id="C70-44" value="style_43" style="dashed=1;fixDash=1;dashPattern=6 5;edgeStyle=none;exitX=0;exitY=0;exitDx=0;exitDy=0;entryX=1;entryY=0;entryDx=0;entryDy=0;startArrow=none;startFill=1;endArrow=open;endFill=1;whiteSpace=wrap;html=1;rounded=1;fillColor=#ffcccc;strokeColor=#36393d" parent="node_root_C70" source="" target="" edge="1">
          <mxGeometry relative="1" as="geometry"/>
        </mxCell>
      </root>
    </mxGraphModel>
  </diagram>
</mxfile>